<svg width="45" height="45" viewBox="0 0 45 45" fill="none" xmlns="http://www.w3.org/2000/svg">
<g clip-path="url(#clip0_85_21)">
<path d="M34.4531 0H10.5469C4.722 0 0 4.722 0 10.5469V34.4531C0 40.278 4.722 45 10.5469 45H34.4531C40.278 45 45 40.278 45 34.4531V10.5469C45 4.722 40.278 0 34.4531 0Z" fill="#111111"/>
<path d="M40.0781 32.1569C39.5664 32.3508 39.0014 32.3504 38.4899 32.1559C37.9784 31.9614 37.5559 31.5862 37.3024 31.1013C35.7093 28.7165 33.95 26.4393 32.2592 24.1131L31.526 23.1358C29.5126 25.8333 27.4992 28.4233 25.6618 31.1112C25.4224 31.5746 25.0228 31.9352 24.5373 32.1258C24.0519 32.3164 23.5136 32.324 23.023 32.1472L30.578 22.0119L23.5506 12.8537C24.0565 12.671 24.6099 12.6685 25.1174 12.8466C25.6249 13.0246 26.0554 13.3723 26.3363 13.831C27.9684 16.216 29.7766 18.4932 31.5749 20.9074C33.3831 18.5128 35.1717 16.2257 36.843 13.8604C37.0836 13.4044 37.4835 13.0529 37.9665 12.8726C38.4495 12.6924 38.9819 12.6961 39.4624 12.883L36.7355 16.4994C35.5138 18.112 34.3116 19.7344 33.0411 21.308C32.9387 21.3997 32.8568 21.5119 32.8007 21.6374C32.7446 21.7629 32.7156 21.8988 32.7156 22.0362C32.7156 22.1736 32.7446 22.3095 32.8007 22.435C32.8568 22.5605 32.9387 22.6727 33.0411 22.7644C35.377 25.8627 37.6933 28.9707 40.0781 32.1569ZM4.92188 21.8848C5.12719 20.9074 5.2541 19.842 5.53764 18.8452C7.22848 12.8343 14.1189 10.3321 18.8592 14.056C21.635 16.2357 22.329 19.3242 22.1922 22.8036H6.55418C6.3 29.0197 10.7861 32.7728 16.5233 30.8572C17.4539 30.5243 18.2871 29.9649 18.9474 29.2294C19.6078 28.4939 20.0746 27.6056 20.3057 26.6446C20.6088 25.6672 21.0974 25.5011 22.0259 25.7845C21.873 26.9743 21.4523 28.114 20.7955 29.1179C20.1387 30.1218 19.2628 30.9637 18.2338 31.5803C16.5336 32.5103 14.5829 32.8787 12.6606 32.6329C10.7384 32.3872 8.94308 31.5398 7.53152 30.2121C6.13503 28.6418 5.29063 26.6578 5.12719 24.5628C5.12719 24.2306 5.0001 23.8982 4.93172 23.5854C4.92525 23.0186 4.92197 22.4517 4.92188 21.8848ZM6.57369 21.4645H20.7163C20.6283 16.9588 17.7841 13.7628 13.992 13.7336C9.76975 13.6749 6.74965 16.8024 6.56385 21.445L6.57369 21.4645Z" fill="#DC143C"/>
</g>
<defs>
<clipPath id="clip0_85_21">
<rect width="45" height="45" fill="white"/>
</clipPath>
</defs>
</svg>
