<svg width="45" height="45" viewBox="0 0 45 45" fill="none" xmlns="http://www.w3.org/2000/svg">
<path d="M25.7625 7.93125C24.6368 6.58966 23.5654 5.20355 22.5506 3.77625C22.5449 3.76813 22.5373 3.7615 22.5285 3.75692C22.5197 3.75234 22.5099 3.74995 22.5 3.74995C22.4901 3.74995 22.4803 3.75234 22.4715 3.75692C22.4627 3.7615 22.4551 3.76813 22.4494 3.77625C21.4346 5.20419 20.3632 6.59092 19.2375 7.93312C5.71499 25.1587 21.3712 36.78 21.3712 36.78L21.4969 36.8681C21.6169 38.6663 21.9112 41.25 21.9112 41.25H23.0887C23.0887 41.25 23.3831 38.6775 23.5012 36.8813L23.6306 36.78C23.6306 36.78 39.285 25.1587 25.7644 7.93312M22.5 36.5288C22.5 36.5288 21.7987 35.9288 21.6094 35.6288L21.6075 35.5988L22.4569 16.845C22.459 16.8349 22.4645 16.8258 22.4725 16.8192C22.4805 16.8127 22.4906 16.8091 22.5009 16.8091C22.5113 16.8091 22.5213 16.8127 22.5293 16.8192C22.5374 16.8258 22.5429 16.8349 22.545 16.845L23.3925 35.5988V35.6306C23.2031 35.9306 22.5 36.5288 22.5 36.5288Z" fill="#DC143C"/>
</svg>
