<svg width="67" height="45" viewBox="0 0 67 45" fill="none" xmlns="http://www.w3.org/2000/svg">
<path d="M19.6402 29.6945L21.6465 36.2042C22.0973 37.6823 22.2853 38.7141 22.21 39.3021C23.3073 36.3634 24.074 33.1608 24.5102 29.6945H26.9226C25.8852 35.3377 24.5172 39.4384 22.8189 41.9966C21.4957 43.968 20.0461 44.9536 18.4676 44.9536C18.0468 44.9536 17.5279 44.8264 16.9122 44.574V43.2137C17.2131 43.2578 17.566 43.2814 17.9719 43.2814C18.7081 43.2812 19.3019 43.0774 19.7533 42.6699C20.294 42.1736 20.5646 41.6158 20.5646 40.9976C20.5646 40.5754 20.3535 39.7091 19.9333 38.3985L17.1379 29.6945H19.6402ZM4.28517 25.6933L7.95996 36.9054H7.98265L11.68 25.6933H14.7008C15.3623 31.2537 15.753 36.3413 15.8729 40.9528H13.326C13.2363 36.6421 12.9884 32.5883 12.5823 28.7912H12.5601L8.68189 40.9528H6.74238L2.88759 28.7912H2.8649C2.57908 32.4378 2.39874 36.4917 2.32387 40.9528H0.00140381C0.15149 35.527 0.527091 30.441 1.12821 25.6933H4.28517Z" fill="black"/>
<path d="M45.4524 25.4669C49.4054 25.4669 51.3819 27.9923 51.3819 33.0407C51.3819 35.784 50.7875 37.8562 49.5998 39.2561C49.3858 39.5119 49.1492 39.7329 48.9 39.9377L51.6974 41.3208L51.6947 41.3207L50.7015 43.0359L47.0585 40.9103C46.4546 41.0891 45.7905 41.1785 45.0663 41.1785C43.1253 41.1785 41.6755 40.6128 40.717 39.4829C39.6649 38.233 39.139 36.2652 39.139 33.583C39.139 30.8552 39.7324 28.7908 40.9205 27.3891C42.0025 26.107 43.5135 25.4669 45.4524 25.4669ZM33.3476 25.489C34.7604 25.489 36.045 25.867 37.2021 26.6204L36.6144 27.93C35.6243 27.5092 34.6481 27.2979 33.6854 27.2979C32.9043 27.2979 32.3024 27.4858 31.8828 27.8642C31.4609 28.2391 31.2 28.7216 31.2 29.3098C31.2 30.2137 31.8439 30.9975 33.0328 31.6598C33.4223 31.8727 33.8105 32.088 34.1973 32.3059L34.286 32.3558L34.3305 32.3808L34.4193 32.4307L34.4637 32.4557L34.5524 32.5057C35.4524 33.0131 36.2993 33.4974 36.2993 33.4974C37.4881 34.3413 38.0807 35.2411 38.0807 36.723C38.0807 38.0171 37.6065 39.0795 36.6611 39.9107C35.715 40.7383 34.4441 41.1532 32.8525 41.1532C31.3638 41.1532 29.9211 40.6756 28.5237 39.7284L29.1774 38.4176C30.38 39.0204 31.4683 39.3215 32.4455 39.3215C33.362 39.3215 34.0794 39.1169 34.5984 38.7128C35.1164 38.3057 35.4267 37.738 35.4267 37.0181C35.4267 36.112 34.7965 35.3375 33.6403 34.6878C33.2784 34.4878 32.9176 34.286 32.5578 34.0821L32.4692 34.032C32.3065 33.9401 32.1426 33.847 31.9821 33.7558L31.8951 33.7063C31.1143 33.2622 30.4393 32.8742 30.4393 32.8742C29.2835 32.0288 28.7039 31.1217 28.7039 29.627C28.7039 28.3909 29.1361 27.3917 29.9993 26.6316C30.8645 25.8698 31.9806 25.489 33.3476 25.489ZM56.0274 25.6932V39.0756H60.8289V40.9527H53.5923V25.6933L56.0274 25.6932ZM63.4969 39.0814V39.3986H62.9691V40.951H62.5655V39.3986H62.0171V39.0814H63.4969ZM64.4717 39.0814L64.9786 40.3558L65.4442 39.0814H66.0163V40.951H65.6359V39.5282L65.106 40.951H64.8317L64.3009 39.5282H64.2805V40.951H63.9206V39.0814H64.4717ZM45.2039 27.3435C42.8744 27.3435 41.7091 29.266 41.7091 33.1084C41.7091 35.3094 42.0179 36.9054 42.6343 37.9002C43.2053 38.8208 44.0995 39.2802 45.3171 39.2802C47.6465 39.2802 48.8117 37.3428 48.8117 33.4697C48.8117 31.2995 48.5029 29.7171 47.8872 28.7219C47.3156 27.8033 46.4218 27.3435 45.204 27.3435" fill="#DC143C"/>
<path d="M39.0983 0.945517C39.871 -0.953251 42.5729 0.484686 43.6215 1.14795C43.8785 1.3139 44.1732 1.66449 44.4678 1.79407C44.9275 1.81212 45.3868 1.8481 45.8472 1.86731C46.7109 2.07026 47.5199 2.23608 48.2004 2.62367C51.363 4.4862 53.4218 6.3842 55.3166 9.51924C55.7215 10.1833 55.9238 10.9019 56.2545 11.6204C56.7135 12.6915 57.2293 13.8159 57.7621 14.8287C58.0006 15.3089 58.1851 15.8428 58.5164 16.2484C58.6457 16.4338 59.013 16.4884 59.2326 16.5992C59.8397 16.9134 60.5751 17.152 61.1461 17.5207C62.2123 18.1855 63.2432 18.9778 64.1803 19.7888C64.5296 20.1019 64.7676 20.545 65.1004 20.8761V21.0432C64.805 21.1339 64.5106 21.2267 64.216 21.3011C63.5725 21.4664 63.0024 21.429 62.3781 21.5945C61.9923 21.7064 61.5133 21.854 61.1087 21.8915L61.1461 21.9292C61.3841 22.6093 62.672 23.1625 63.261 23.5693C63.9763 24.0856 64.6392 24.7117 65.1727 25.4308C65.357 25.6143 65.5413 25.7813 65.7246 25.9642C65.8528 26.1496 65.8889 26.3895 66.0186 26.5548V26.6107C65.875 26.5601 65.7717 26.4634 65.6738 26.3623L65.6154 26.3013C65.557 26.2407 65.4981 26.1811 65.4309 26.132C65.025 25.8548 64.6219 25.5231 64.216 25.2654C63.5182 24.8226 62.7088 24.5656 61.9923 24.1212C61.5872 23.8632 61.201 23.5693 60.8148 23.274C60.4648 23.0152 60.0792 22.5183 59.8593 22.1495C59.7297 21.9458 59.7119 21.7064 59.5639 21.559C59.5903 21.3129 59.8158 21.2397 60.0434 21.1797L60.0957 21.1659C60.1743 21.1455 60.2511 21.1251 60.3182 21.0982C61.2741 20.6923 62.4138 20.545 63.8855 20.5819C63.8301 20.2123 62.9105 19.7519 62.6169 19.5306C62.0276 19.1059 61.4037 18.6628 60.7786 18.2762C60.4474 18.0738 59.8765 17.926 59.5096 17.7606C59.013 17.5576 57.9094 17.3548 57.6343 16.9682C57.1669 16.3589 56.8311 15.632 56.5052 14.8978L56.4164 14.6975L56.3275 14.4972C55.9422 13.6131 55.4636 12.6913 55.0774 11.786C54.8755 11.3444 54.7828 10.9568 54.5616 10.5332C53.2198 7.93406 51.2337 5.75794 48.8258 4.22755C48.0345 3.72959 47.1521 3.26875 46.1781 2.95556C45.6261 2.78884 44.9636 2.88103 44.3755 2.75312H43.9884C43.6581 2.66003 43.3823 2.30983 43.1246 2.12519C42.5553 1.73863 41.9851 1.47907 41.3043 1.20327C41.0658 1.09264 40.3846 0.835015 40.1468 1.03784C39.9996 1.07484 39.9249 1.13042 39.8887 1.27818C39.7422 1.49867 39.871 1.83082 39.9622 2.03416C40.2384 2.62341 40.6242 2.97361 40.9744 3.47158C41.2859 3.9132 41.6728 4.41116 41.8937 4.89133C42.3703 5.9235 42.5922 7.06706 43.0338 8.0991C43.1975 8.48721 43.4566 8.92883 43.695 9.2789C43.897 9.55676 44.2644 9.75765 44.3755 10.1094C44.597 10.4782 44.0439 11.695 43.9159 12.0814C43.4368 13.5935 43.5297 15.6953 44.0813 17.006L44.1107 17.0751L44.1401 17.1451C44.3415 17.6252 44.5571 18.1421 45.0926 18.2763C45.1294 18.2397 45.0926 18.2589 45.1657 18.2397C45.2953 17.2252 45.3317 16.2482 45.6814 15.4545C45.8835 14.9582 46.2869 14.6073 46.5635 14.2022C46.7479 14.3126 46.7479 14.6454 46.8577 14.8656C47.0971 15.4368 47.354 16.0631 47.649 16.6359C48.2546 17.8157 48.9359 18.9596 49.7078 19.9916C49.9664 20.3602 50.3332 20.766 50.664 21.098C50.8114 21.2266 50.9765 21.3009 51.0872 21.4663H51.1233V21.522C50.5717 21.3187 50.222 20.748 49.7821 20.4148C48.9538 19.7885 47.9619 18.848 47.3909 17.9456C47.1521 17.4275 46.894 16.931 46.6366 16.4155V16.3782C46.5266 16.5254 46.5635 16.6717 46.5084 16.8945C46.2696 17.8157 46.4535 18.8667 45.6261 19.1981C44.6882 19.5862 43.9886 18.5719 43.695 18.1109C42.7568 16.5809 42.4998 13.9998 43.1614 11.9162C43.3084 11.455 43.3284 10.9019 43.585 10.5336C43.5296 10.2007 43.273 10.1097 43.1246 9.90567C42.8672 9.55702 42.6468 9.15086 42.4453 8.76365C42.0582 8.00729 41.7828 7.10355 41.4889 6.29239C41.3598 5.96115 41.3227 5.62861 41.1939 5.31503C40.9742 4.83641 40.5692 4.35623 40.2568 3.93279C39.8337 3.3242 38.6016 2.14466 39.0983 0.945517ZM45.129 4.55777C45.1782 4.60702 45.2375 4.65009 45.2989 4.69251L45.3729 4.74331C45.4715 4.81165 45.5671 4.8836 45.6256 4.98159C45.7184 5.1113 45.7357 5.23934 45.8469 5.36931C45.8469 5.81248 45.7184 6.10711 45.4591 6.29072C45.4591 6.29072 45.4415 6.31006 45.4233 6.32811C45.2763 6.03271 45.1475 5.73886 44.9995 5.44371C44.8171 5.18609 44.5594 4.98172 44.4109 4.68735H44.3751V4.65035C44.597 4.59555 44.8171 4.55777 45.129 4.55777Z" fill="black"/>
</svg>
