<svg width="45" height="45" viewBox="0 0 45 45" fill="none" xmlns="http://www.w3.org/2000/svg">
<mask id="mask0_68_56" style="mask-type:luminance" maskUnits="userSpaceOnUse" x="0" y="0" width="45" height="45">
<path d="M22.5 45C34.9264 45 45 34.9264 45 22.5C45 10.0736 34.9264 0 22.5 0C10.0736 0 0 10.0736 0 22.5C0 34.9264 10.0736 45 22.5 45Z" fill="white"/>
</mask>
<g mask="url(#mask0_68_56)">
<path d="M22.5 45C34.9264 45 45 34.9264 45 22.5C45 10.0736 34.9264 0 22.5 0C10.0736 0 0 10.0736 0 22.5C0 34.9264 10.0736 45 22.5 45Z" fill="#DC143C"/>
<path d="M37.3771 39.3799L17.2854 13.5H13.5V31.4924H16.5284V17.3461L34.9998 41.2112C35.8321 40.6544 36.6263 40.0426 37.3771 39.3799Z" fill="url(#paint0_linear_68_56)"/>
<path d="M28.7501 13.5H31.7501V31.5H28.7501V13.5Z" fill="url(#paint1_linear_68_56)"/>
</g>
<defs>
<linearGradient id="paint0_linear_68_56" x1="1341.85" y1="1576" x2="2139.21" y2="2564.28" gradientUnits="userSpaceOnUse">
<stop stop-color="white"/>
<stop offset="1" stop-color="white" stop-opacity="0"/>
</linearGradient>
<linearGradient id="paint1_linear_68_56" x1="178.753" y1="13.5" x2="173.677" y2="1335.36" gradientUnits="userSpaceOnUse">
<stop stop-color="white"/>
<stop offset="1" stop-color="white" stop-opacity="0"/>
</linearGradient>
</defs>
</svg>
