<svg width="38" height="45" viewBox="0 0 38 45" fill="none" xmlns="http://www.w3.org/2000/svg">
<path d="M33.5228 35.6737L13.3369 41.6439C12.7202 41.8264 12.1291 41.293 12.2587 40.6707L19.47 6.13564C19.6049 5.48947 20.4976 5.38725 20.7792 5.98535L34.1314 34.3384C34.3832 34.8737 34.0959 35.5045 33.5227 35.6737M36.9842 34.265L21.5245 1.4349C20.5053 -0.471538 18.0936 -0.402368 17.1514 1.1932L0.384365 28.3506C-0.135068 29.1974 -0.124785 30.2411 0.413897 31.077L8.60996 43.7736C9.45503 44.7811 10.2365 45.2563 11.5712 44.8615L35.3618 37.8251C36.9468 37.3505 37.7105 35.8193 36.9842 34.265Z" fill="#DC143C"/>
</svg>
