<svg width="45" height="45" viewBox="0 0 45 45" fill="none" xmlns="http://www.w3.org/2000/svg">
<path d="M18.4875 3.75C17.0653 3.75 15.7013 4.31498 14.6956 5.32064C13.69 6.3263 13.125 7.69028 13.125 9.1125V12.2625H21.1687C21.9 12.2625 22.5 13.3312 22.5 14.0625H9.1125C7.69028 14.0625 6.3263 14.6275 5.32064 15.6331C4.31498 16.6388 3.75 18.0028 3.75 19.425V26.5144C3.75 27.9366 4.31498 29.3006 5.32064 30.3062C6.3263 31.3119 7.69028 31.8769 9.1125 31.8769H11.325V26.8519C11.3225 26.1485 11.4589 25.4516 11.7264 24.8011C11.9938 24.1507 12.387 23.5593 12.8835 23.0611C13.38 22.5629 13.9699 22.1676 14.6194 21.8979C15.269 21.6282 15.9654 21.4894 16.6688 21.4894H26.5125C29.475 21.4894 31.875 19.1062 31.875 16.1437V9.1125C31.875 7.69028 31.31 6.3263 30.3044 5.32064C29.2987 4.31498 27.9347 3.75 26.5125 3.75H18.4875ZM17.1375 6.76875C17.8875 6.76875 18.4875 6.99375 18.4875 8.1C18.4875 9.20625 17.8875 9.77062 17.1375 9.77062C16.4063 9.77062 15.8063 9.20812 15.8063 8.10187C15.8063 6.99563 16.4063 6.76875 17.1375 6.76875Z" fill="#111111"/>
<path d="M33.6731 13.125V18.15C33.6753 18.8532 33.5388 19.5499 33.2712 20.2001C33.0037 20.8504 32.6104 21.4415 32.114 21.9395C31.6175 22.4375 31.0277 22.8326 30.3782 23.1022C29.7288 23.3719 29.0325 23.5106 28.3294 23.5106H18.4875C17.7842 23.5082 17.0873 23.6446 16.4368 23.912C15.7863 24.1794 15.195 24.5727 14.6968 25.0691C14.1986 25.5656 13.8033 26.1555 13.5336 26.8051C13.2638 27.4546 13.125 28.151 13.125 28.8544V35.8856C13.125 37.3078 13.69 38.6718 14.6956 39.6775C15.7013 40.6832 17.0653 41.2481 18.4875 41.2481H26.5125C27.9344 41.2481 29.2981 40.6834 30.3037 39.6781C31.3093 38.6729 31.8745 37.3094 31.875 35.8875V32.7375H23.8294C23.0981 32.7375 22.5 31.6688 22.5 30.9375H35.8875C37.3097 30.9375 38.6737 30.3725 39.6794 29.3669C40.685 28.3612 41.25 26.9972 41.25 25.575V18.4875C41.25 17.0653 40.685 15.7013 39.6794 14.6956C38.6737 13.69 37.3097 13.125 35.8875 13.125H33.6731ZM15.6 21.5869L15.5925 21.5944L15.6638 21.5869H15.6ZM27.8625 35.2294C28.5937 35.2294 29.1937 35.7919 29.1937 36.8981C29.1937 37.073 29.1593 37.2461 29.0924 37.4076C29.0255 37.5691 28.9275 37.7158 28.8038 37.8395C28.6802 37.9631 28.5335 38.0611 28.3719 38.128C28.2104 38.1949 28.0373 38.2294 27.8625 38.2294C27.1125 38.2294 26.5125 38.0044 26.5125 36.8981C26.5125 35.7919 27.1125 35.2294 27.8625 35.2294Z" fill="#DC143C"/>
</svg>
