<svg width="45" height="45" viewBox="0 0 45 45" fill="none" xmlns="http://www.w3.org/2000/svg">
<mask id="mask0_68_142" style="mask-type:luminance" maskUnits="userSpaceOnUse" x="0" y="0" width="45" height="45">
<path d="M0 0H45V45H0V0Z" fill="white"/>
</mask>
<g mask="url(#mask0_68_142)">
<path d="M45 21.9169C45 18.9356 41.2669 16.11 35.5425 14.3588C36.8644 8.52563 36.2775 3.88313 33.69 2.39625C33.0629 2.04553 32.3534 1.8688 31.635 1.88437V3.92813C32.0569 3.92813 32.3963 4.0125 32.6813 4.16813C33.9281 4.88438 34.47 7.60688 34.0481 11.1113C33.9469 11.9738 33.7819 12.8813 33.5794 13.8075C31.6621 13.3471 29.7167 13.0133 27.7556 12.8081C26.5866 11.1967 25.3119 9.66454 23.94 8.22188C26.9306 5.44313 29.7375 3.92063 31.6463 3.92063V1.875C29.1225 1.875 25.8206 3.67313 22.4812 6.79125C19.1437 3.69375 15.84 1.9125 13.3181 1.9125V3.95625C15.2175 3.95625 18.0338 5.47125 21.0244 8.23125C19.74 9.58125 18.4556 11.1113 17.235 12.8081C15.2698 13.0104 13.3208 13.3474 11.4019 13.8169C11.1919 12.8994 11.0325 12.0131 10.9238 11.1581C10.4925 7.65188 11.025 4.92938 12.2644 4.20563C12.5381 4.04063 12.8963 3.96563 13.3181 3.96563V1.92187C12.5494 1.92187 11.85 2.08687 11.2463 2.43375C8.66813 3.92063 8.09063 8.55188 9.42 14.3681C3.71438 16.1306 0 18.945 0 21.9169C0 24.8981 3.73313 27.7238 9.4575 29.4731C8.13563 35.3081 8.7225 39.9506 11.31 41.4356C11.9063 41.7844 12.6037 41.9494 13.3725 41.9494C15.8962 41.9494 19.1981 40.1513 22.5375 37.0331C25.875 40.1325 29.1769 41.9119 31.7006 41.9119C32.4244 41.9254 33.1389 41.7482 33.7725 41.3981C36.3506 39.9131 36.9281 35.2819 35.5988 29.4656C41.2856 27.7144 45 24.8888 45 21.9169ZM33.0562 15.7988C32.7 17.0248 32.2871 18.2336 31.8187 19.4213C31.0535 17.9295 30.2117 16.4782 29.2969 15.0731C30.6019 15.2644 31.8556 15.5063 33.0581 15.7988M28.8581 25.5675C28.1712 26.7664 27.4337 27.9356 26.6475 29.0719C23.8954 29.314 21.1276 29.3171 18.375 29.0813C16.7965 26.8257 15.4157 24.4381 14.2481 21.945C15.4131 19.4456 16.788 17.0495 18.3581 14.7825C21.1095 14.5399 23.8767 14.5361 26.6287 14.7713C27.3912 15.865 28.1312 17.0275 28.8487 18.2588C29.545 19.46 30.1812 20.6763 30.7575 21.9075C30.1743 23.1528 29.5407 24.3738 28.8581 25.5675ZM31.8187 24.375C32.3137 25.605 32.7375 26.8331 33.0844 28.0256C31.8844 28.32 30.6169 28.5675 29.3063 28.7588C30.2162 27.3402 31.0547 25.8772 31.8187 24.375ZM22.5188 34.1625C21.6638 33.28 20.8137 32.3013 19.9687 31.2263C20.7937 31.2638 21.6375 31.2919 22.4906 31.2919C23.3544 31.2931 24.2044 31.2713 25.0406 31.2263C24.2156 32.3006 23.3625 33.2813 22.5188 34.1625ZM15.6937 28.7588C14.4295 28.5759 13.1744 28.3344 11.9325 28.035C12.2719 26.8519 12.6938 25.6313 13.17 24.4125C13.5469 25.1438 13.9425 25.8788 14.3737 26.6138C14.805 27.3475 15.245 28.0625 15.6937 28.7588ZM22.4719 9.67125C23.3269 10.5538 24.1769 11.5325 25.0219 12.6075C24.1969 12.57 23.3531 12.5419 22.5 12.5419C21.6363 12.5406 20.7863 12.5625 19.95 12.6075C20.775 11.5331 21.6281 10.5525 22.4719 9.67125ZM15.6844 15.075C14.7747 16.4905 13.9362 17.9504 13.1719 19.4494C12.6905 18.2539 12.2681 17.0356 11.9062 15.7988C13.1062 15.5138 14.3737 15.2663 15.6844 15.075ZM7.38375 26.5575C4.13625 25.1738 2.03625 23.3569 2.03625 21.9169C2.03625 20.4769 4.13625 18.6506 7.38375 17.2763C8.17125 16.9369 9.03375 16.6331 9.92438 16.35C10.4475 18.1463 11.1356 20.0175 11.9869 21.9356C11.1823 23.7394 10.5026 25.5962 9.9525 27.4931C9.08159 27.2231 8.22433 26.9108 7.38375 26.5575ZM12.3188 39.6638C11.0719 38.9513 10.53 36.225 10.9519 32.7225C11.0531 31.86 11.2181 30.9506 11.4206 30.0244C13.2169 30.465 15.18 30.8044 17.2444 31.0256C18.4134 32.6371 19.6881 34.1692 21.06 35.6119C18.0694 38.3906 15.2625 39.9131 13.3538 39.9131C12.9939 39.9146 12.639 39.8297 12.3188 39.6656M34.0762 32.6775C34.5075 36.1819 33.975 38.9063 32.7356 39.63C32.4619 39.795 32.1037 39.8681 31.6819 39.8681C29.7825 39.8681 26.9662 38.355 23.9756 35.5931C25.3424 34.157 26.6085 32.6284 27.765 31.0181C29.7302 30.8159 31.6792 30.4788 33.5981 30.0094C33.8119 30.9344 33.9712 31.8238 34.0762 32.6775ZM37.6069 26.5594C36.8194 26.8988 35.9569 27.2025 35.0662 27.4856C34.5055 25.5794 33.8164 23.7132 33.0037 21.9C33.8475 19.9931 34.5244 18.1313 35.0381 16.3425C35.9481 16.6263 36.8075 16.9381 37.6163 17.2781C40.8638 18.6619 42.9637 20.4788 42.9637 21.9188C42.9544 23.3588 40.8544 25.185 37.6069 26.5594Z" fill="#DC143C"/>
<path d="M22.4906 26.1094C23.6025 26.1094 24.6689 25.6677 25.4552 24.8814C26.2414 24.0952 26.6831 23.0288 26.6831 21.9169C26.6831 20.805 26.2414 19.7386 25.4552 18.9523C24.6689 18.1661 23.6025 17.7244 22.4906 17.7244C21.3787 17.7244 20.3123 18.1661 19.5261 18.9523C18.7398 19.7386 18.2981 20.805 18.2981 21.9169C18.2981 23.0288 18.7398 24.0952 19.5261 24.8814C20.3123 25.6677 21.3787 26.1094 22.4906 26.1094Z" fill="#DC143C"/>
</g>
</svg>
