<svg width="45" height="45" viewBox="0 0 45 45" fill="none" xmlns="http://www.w3.org/2000/svg">
<path d="M44.9859 26.8875C44.9719 27.3192 44.3995 27.7959 43.2352 28.4034C40.8333 29.6564 28.3964 34.7752 25.7442 36.1519C23.0934 37.5356 21.6281 37.5216 19.5328 36.5175C17.4375 35.5219 4.20328 30.1669 1.81547 29.032C0.628596 28.4611 0.0210962 27.9844 -0.00140381 27.5302V32.078C-0.00140381 32.5322 0.628596 33.0075 1.81547 33.5798C4.20328 34.7231 17.4459 40.0697 19.5328 41.0653C21.6281 42.0694 23.092 42.0834 25.7442 40.6997C28.395 39.323 40.8319 34.2028 43.2352 32.9512C44.4586 32.3212 45 31.8234 45 31.3762V26.8931C44.9991 26.8875 44.9944 26.8852 44.9859 26.8861V26.8875ZM44.9859 19.4752C44.9634 19.8998 44.3995 20.3766 43.2352 20.9911C40.8333 22.2356 28.3964 27.3558 25.7442 28.7325C23.0934 30.1162 21.6281 30.1022 19.5328 29.1066C17.4375 28.1025 4.20328 22.7559 1.81547 21.6141C0.628596 21.0502 0.0210962 20.5664 -0.00140381 20.1122V24.66C-0.00140381 25.1142 0.628596 25.598 1.81547 26.1619C4.20328 27.3052 17.4375 32.6517 19.5328 33.6544C21.6281 34.65 23.092 34.6655 25.7442 33.2888C28.395 31.905 40.8319 26.7919 43.2352 25.5403C44.4586 24.9033 45 24.4055 45 23.9583V19.4752H44.9859ZM44.9859 11.7773C45.0084 11.3231 44.415 10.9209 43.2056 10.4808C40.8698 9.62437 28.4991 4.7025 26.1323 3.83062C23.767 2.96578 22.7995 3.00234 20.0166 3.99937C17.2336 5.00344 4.0711 10.1658 1.72828 11.0812C0.556877 11.5425 -0.0154663 11.9672 0.00703369 12.4214V16.9692C0.00703369 17.4234 0.630003 17.8987 1.82391 18.4711C4.20469 19.6144 17.4459 24.9609 19.5413 25.9636C21.6281 26.9592 23.1005 26.9747 25.7527 25.5895C28.3964 24.2128 40.8403 19.0927 43.2436 17.8481C44.46 17.2111 45.0014 16.7133 45.0014 16.2661V11.7759L44.9859 11.7773ZM16.1128 16.0847L26.543 14.4886L23.393 19.1025L16.1128 16.0847ZM39.1767 11.9236L32.3438 14.6264L26.1773 12.188L33.0033 9.49219L39.1767 11.9236ZM21.0713 7.45594L20.0602 5.59547L23.2102 6.82594L26.1759 5.85844L25.3702 7.77797L28.395 8.91281L24.4983 9.315L23.6194 11.4173L22.2131 9.07312L17.7089 8.67094L21.0713 7.45594ZM13.3003 10.0856C16.3842 10.0856 18.8747 11.0531 18.8747 12.2386C18.8747 13.4325 16.3772 14.3986 13.3003 14.3986C10.2234 14.3986 7.72594 13.4311 7.72594 12.2386C7.72594 11.0517 10.2234 10.0856 13.3003 10.0856Z" fill="#DC143C"/>
</svg>
