<svg width="45" height="45" viewBox="0 0 45 45" fill="none" xmlns="http://www.w3.org/2000/svg">
<path d="M22.5 11.25C15.75 11.25 13.4381 16.2506 13.125 18.75C13.125 18.75 14.6606 15.7725 18.4931 15.7725C23.1806 15.7725 23.5631 22.5 32.0006 22.5C38.835 22.5 40.9369 17.8444 41.25 15.5175C41.25 15.5175 39.7875 18.1481 36.0375 18.1481C31.3687 18.1481 30.7744 11.25 22.5 11.25ZM13.125 22.5C6.375 22.5 4.06312 27.5006 3.75 30C3.75 30 5.28563 27.0225 9.11812 27.0225C13.8056 27.0225 14.1881 33.75 22.6256 33.75C29.46 33.75 31.5619 29.0944 31.875 26.7656C31.875 26.7656 30.4125 29.3981 26.6625 29.3981C21.9938 29.3981 21.3994 22.5 13.125 22.5Z" stroke="#DC143C" stroke-width="2.8125" stroke-linecap="round" stroke-linejoin="round"/>
</svg>
