<svg width="40" height="57" viewBox="0 0 40 57" fill="none" xmlns="http://www.w3.org/2000/svg">
<g clip-path="url(#clip0_50_163)">
<path d="M39.8609 11L36.2295 52.1095L19.9061 56.6824L3.62766 52.1158L0 11H39.8609Z" fill="#E44D26"/>
<path d="M20 53.3605L33.1902 49.6653L36.2933 14.5353H20V53.3605Z" fill="#F16529"/>
<path d="M11.007 40.36C8.36703 40.36 6.26703 39.616 4.70703 38.128C3.14703 36.64 2.36703 34.624 2.36703 32.08V21.64C2.36703 19.072 3.14703 17.056 4.70703 15.592C6.26703 14.104 8.36703 13.36 11.007 13.36C13.647 13.36 15.747 14.104 17.307 15.592C18.867 17.056 19.647 19.072 19.647 21.64V32.08C19.647 34.624 18.867 36.64 17.307 38.128C15.747 39.616 13.647 40.36 11.007 40.36ZM11.007 35.68C13.167 35.68 14.247 34.6 14.247 32.44V21.28C14.247 19.12 13.167 18.04 11.007 18.04C8.84703 18.04 7.76703 19.12 7.76703 21.28V32.44C7.76703 34.6 8.84703 35.68 11.007 35.68Z" fill="white"/>
<path d="M19.907 52V47.14L29.555 30.58H20.195V25.72H35.711V30.58L26.027 47.14H36.107V52H19.907Z" fill="white"/>
</g>
<defs>
<clipPath id="clip0_50_163">
<rect width="40" height="57" fill="white"/>
</clipPath>
</defs>
</svg>
